{
    "asset" : {
        "generator" : "Khronos glTF Blender I/O v1.6.16",
        "version" : "2.0"
    },
    "scene" : 0,
    "scenes" : [
        {
            "name" : "Scene",
            "nodes" : [
                0,
                1
            ]
        }
    ],
    "nodes" : [
        {
            "mesh" : 0,
            "name" : "Car",
            "translation" : [
                0.5100874304771423,
                0,
                0
            ]
        },
        {
            "mesh" : 1,
            "name" : "Hitbox",
            "translation" : [
                0.5100874304771423,
                0,
                0
            ]
        }
    ],
    "materials" : [
        {
            "doubleSided" : true,
            "name" : "Material",
            "pbrMetallicRoughness" : {
                "baseColorFactor" : [
                    0.33529725670814514,
                    0.12894918024539948,
                    0.34238243103027344,
                    1
                ],
                "metallicFactor" : 0.11764705926179886,
                "roughnessFactor" : 0.5102941393852234
            }
        },
        {
            "doubleSided" : true,
            "name" : "Material.001",
            "pbrMetallicRoughness" : {
                "baseColorFactor" : [
                    0.33529725670814514,
                    0.12894918024539948,
                    0.34238243103027344,
                    1
                ],
                "metallicFactor" : 0.11764705926179886,
                "roughnessFactor" : 0.5102941393852234
            }
        }
    ],
    "meshes" : [
        {
            "name" : "Cube",
            "primitives" : [
                {
                    "attributes" : {
                        "POSITION" : 0,
                        "NORMAL" : 1,
                        "TEXCOORD_0" : 2
                    },
                    "indices" : 3,
                    "material" : 0
                }
            ]
        },
        {
            "name" : "Cube.001",
            "primitives" : [
                {
                    "attributes" : {
                        "POSITION" : 4,
                        "NORMAL" : 5,
                        "TEXCOORD_0" : 6
                    },
                    "indices" : 7,
                    "material" : 1
                }
            ]
        }
    ],
    "accessors" : [
        {
            "bufferView" : 0,
            "componentType" : 5126,
            "count" : 1126,
            "max" : [
                1,
                2.0661308765411377,
                2.9720616340637207
            ],
            "min" : [
                -1.9767473936080933,
                -1.915799856185913,
                -3.219541549682617
            ],
            "type" : "VEC3"
        },
        {
            "bufferView" : 1,
            "componentType" : 5126,
            "count" : 1126,
            "type" : "VEC3"
        },
        {
            "bufferView" : 2,
            "componentType" : 5126,
            "count" : 1126,
            "type" : "VEC2"
        },
        {
            "bufferView" : 3,
            "componentType" : 5123,
            "count" : 2256,
            "type" : "SCALAR"
        },
        {
            "bufferView" : 4,
            "componentType" : 5126,
            "count" : 64,
            "max" : [
                1,
                2.0661308765411377,
                2.9720616340637207
            ],
            "min" : [
                -1.9767473936080933,
                -1,
                -3.219541549682617
            ],
            "type" : "VEC3"
        },
        {
            "bufferView" : 5,
            "componentType" : 5126,
            "count" : 64,
            "type" : "VEC3"
        },
        {
            "bufferView" : 6,
            "componentType" : 5126,
            "count" : 64,
            "type" : "VEC2"
        },
        {
            "bufferView" : 7,
            "componentType" : 5123,
            "count" : 108,
            "type" : "SCALAR"
        }
    ],
    "bufferViews" : [
        {
            "buffer" : 0,
            "byteLength" : 13512,
            "byteOffset" : 0
        },
        {
            "buffer" : 0,
            "byteLength" : 13512,
            "byteOffset" : 13512
        },
        {
            "buffer" : 0,
            "byteLength" : 9008,
            "byteOffset" : 27024
        },
        {
            "buffer" : 0,
            "byteLength" : 4512,
            "byteOffset" : 36032
        },
        {
            "buffer" : 0,
            "byteLength" : 768,
            "byteOffset" : 40544
        },
        {
            "buffer" : 0,
            "byteLength" : 768,
            "byteOffset" : 41312
        },
        {
            "buffer" : 0,
            "byteLength" : 512,
            "byteOffset" : 42080
        },
        {
            "buffer" : 0,
            "byteLength" : 216,
            "byteOffset" : 42592
        }
    ],
    "buffers" : [
        {
            "byteLength" : 42808,
            "uri" : "data:application/octet-stream;base64,"
        }
    ]
}
