{
    "asset" : {
        "generator" : "Khronos glTF Blender I/O v1.6.16",
        "version" : "2.0"
    },
    "scene" : 0,
    "scenes" : [
        {
            "name" : "Scene",
            "nodes" : [
                0,
                1
            ]
        }
    ],
    "nodes" : [
        {
            "mesh" : 0,
            "name" : "Buildings",
            "scale" : [
                1,
                2.9184165000915527,
                1
            ],
            "translation" : [
                0,
                2.92087459564209,
                0
            ]
        },
        {
            "mesh" : 1,
            "name" : "Lights",
            "scale" : [
                0.8298110365867615,
                2.7131452560424805,
                0.8298110365867615
            ],
            "translation" : [
                0,
                2.92087459564209,
                0
            ]
        }
    ],
    "materials" : [
        {
            "doubleSided" : true,
            "name" : "Material",
            "pbrMetallicRoughness" : {
                "baseColorFactor" : [
                    0.800000011920929,
                    0.800000011920929,
                    0.800000011920929,
                    1
                ],
                "metallicFactor" : 0,
                "roughnessFactor" : 0.4000000059604645
            }
        },
        {
            "doubleSided" : true,
            "name" : "Material.001",
            "pbrMetallicRoughness" : {
                "baseColorFactor" : [
                    0.800000011920929,
                    0.800000011920929,
                    0.800000011920929,
                    1
                ],
                "metallicFactor" : 0,
                "roughnessFactor" : 0.4000000059604645
            }
        }
    ],
    "meshes" : [
        {
            "name" : "Cube",
            "primitives" : [
                {
                    "attributes" : {
                        "POSITION" : 0,
                        "NORMAL" : 1,
                        "TEXCOORD_0" : 2
                    },
                    "indices" : 3,
                    "material" : 0
                }
            ]
        },
        {
            "name" : "Cube.021",
            "primitives" : [
                {
                    "attributes" : {
                        "POSITION" : 4,
                        "NORMAL" : 5,
                        "TEXCOORD_0" : 6
                    },
                    "indices" : 7,
                    "material" : 1
                }
            ]
        }
    ],
    "accessors" : [
        {
            "bufferView" : 0,
            "componentType" : 5126,
            "count" : 4269,
            "max" : [
                2.9868946075439453,
                1,
                4.977116584777832
            ],
            "min" : [
                -5.457310676574707,
                -1,
                -3.2926862239837646
            ],
            "type" : "VEC3"
        },
        {
            "bufferView" : 1,
            "componentType" : 5126,
            "count" : 4269,
            "type" : "VEC3"
        },
        {
            "bufferView" : 2,
            "componentType" : 5126,
            "count" : 4269,
            "type" : "VEC2"
        },
        {
            "bufferView" : 3,
            "componentType" : 5123,
            "count" : 8241,
            "type" : "SCALAR"
        },
        {
            "bufferView" : 4,
            "componentType" : 5126,
            "count" : 132,
            "max" : [
                3.52732515335083,
                0.9999998211860657,
                5.812768459320068
            ],
            "min" : [
                -6.409299850463867,
                -1.017115592956543,
                -3.7391700744628906
            ],
            "type" : "VEC3"
        },
        {
            "bufferView" : 5,
            "componentType" : 5126,
            "count" : 132,
            "type" : "VEC3"
        },
        {
            "bufferView" : 6,
            "componentType" : 5126,
            "count" : 132,
            "type" : "VEC2"
        },
        {
            "bufferView" : 7,
            "componentType" : 5123,
            "count" : 216,
            "type" : "SCALAR"
        }
    ],
    "bufferViews" : [
        {
            "buffer" : 0,
            "byteLength" : 51228,
            "byteOffset" : 0
        },
        {
            "buffer" : 0,
            "byteLength" : 51228,
            "byteOffset" : 51228
        },
        {
            "buffer" : 0,
            "byteLength" : 34152,
            "byteOffset" : 102456
        },
        {
            "buffer" : 0,
            "byteLength" : 16482,
            "byteOffset" : 136608
        },
        {
            "buffer" : 0,
            "byteLength" : 1584,
            "byteOffset" : 153092
        },
        {
            "buffer" : 0,
            "byteLength" : 1584,
            "byteOffset" : 154676
        },
        {
            "buffer" : 0,
            "byteLength" : 1056,
            "byteOffset" : 156260
        },
        {
            "buffer" : 0,
            "byteLength" : 432,
            "byteOffset" : 157316
        }
    ],
    "buffers" : [
        {
            "byteLength" : 157748,
            "uri" : "data:application/octet-stream;base64,"
        }
    ]
}
